<?xml version="1.0" standalone="no"?>
<!DOCTYPE svg PUBLIC "-//W3C//DTD SVG 20010904//EN"
 "http://www.w3.org/TR/2001/REC-SVG-20010904/DTD/svg10.dtd">
<svg version="1.0" xmlns="http://www.w3.org/2000/svg"
 width="1689.940953pt" height="883.000000pt" viewBox="0 0 1689.940953 883.000000"
 preserveAspectRatio="xMidYMid meet">
<metadata>
Created by potrace 1.12, written by Peter Selinger 2001-2015
</metadata>
<g transform="translate(-100.000000,890.000000) scale(0.100000,-0.100000)"
fill="#ecaea8" stroke="none">
<path d="M8869 8890 c-26 -4 -58 -15 -72 -24 -27 -18 -90 -89 -180 -203 -36
-45 -65 -73 -77 -73 -10 0 -74 52 -142 115 -67 63 -127 115 -133 115 -20 0
-207 -38 -212 -43 -12 -13 87 -160 225 -337 56 -71 80 -95 96 -93 45 4 322 44
336 49 8 2 33 30 54 62 61 89 209 321 245 385 l32 57 -63 -1 c-35 -1 -84 -5
-109 -9z"/>
<path d="M8635 8194 c-272 -35 -459 -120 -622 -282 -115 -113 -212 -293 -249
-463 -24 -112 -22 -285 5 -384 62 -225 226 -394 446 -462 49 -14 93 -18 235
-18 158 1 185 3 272 27 161 44 358 150 442 237 l27 29 -82 110 -82 111 -44
-30 c-122 -84 -280 -142 -420 -153 -60 -5 -85 -2 -151 19 -207 65 -292 181
-292 396 0 218 101 376 305 474 101 48 161 58 311 53 103 -4 145 -10 209 -31
44 -15 82 -23 86 -19 3 4 41 61 83 127 88 137 91 124 -29 180 -121 57 -335 94
-450 79z"/>
<path d="M4230 8173 c-19 -2 -161 -19 -315 -38 -154 -18 -316 -37 -360 -42
l-80 -8 -3 -1062 -2 -1063 37 0 c109 1 903 109 998 136 157 44 246 95 356 204
126 124 177 220 198 373 33 235 -122 450 -360 499 -74 15 -76 31 -10 77 84 57
198 181 230 252 59 127 58 328 -1 430 -37 62 -142 158 -210 191 -95 47 -158
58 -308 56 -74 0 -151 -3 -170 -5z m216 -332 c92 -40 124 -95 124 -213 0 -165
-134 -310 -336 -362 -55 -14 -192 -36 -321 -51 l-53 -6 0 304 0 304 118 17
c279 42 385 43 468 7z m16 -882 c175 -49 261 -226 185 -380 -31 -64 -96 -133
-149 -160 -82 -42 -252 -72 -575 -104 l-63 -6 0 308 0 308 163 23 c89 13 169
25 177 27 32 8 217 -3 262 -16z"/>
<path d="M6881 7934 c-63 -8 -117 -16 -120 -20 -3 -3 -6 -182 -7 -397 -1 -416
-6 -478 -49 -593 -60 -159 -166 -262 -310 -300 -141 -38 -252 9 -307 130 -23
51 -23 52 -26 559 l-3 508 -72 -6 c-116 -10 -287 -37 -293 -46 -2 -4 -4 -228
-4 -496 0 -443 2 -497 20 -583 61 -297 253 -442 540 -409 172 20 278 75 401
207 42 45 81 82 87 82 8 0 12 -29 12 -90 l0 -90 33 0 c17 0 98 5 178 11 l146
12 6 195 c9 251 9 845 0 1125 l-6 217 -56 -1 c-31 -1 -107 -7 -170 -15z"/>
</g>
<g transform="translate(-100.000000,890.000000) scale(0.100000,-0.100000)"
fill="#000000" stroke="none">
<path d="M17381 8305 c-79 -22 -150 -66 -212 -132 -70 -74 -91 -110 -124 -208
-24 -71 -27 -91 -23 -176 4 -74 10 -107 30 -151 103 -224 360 -287 604 -148
100 58 189 178 228 309 20 68 21 192 1 257 -31 105 -116 193 -228 236 -69 27
-204 33 -276 13z"/>
<path d="M15995 8089 c-27 -4 -142 -20 -255 -34 -113 -14 -220 -28 -239 -31
l-34 -5 5 -995 c3 -547 3 -994 0 -994 -3 0 -44 38 -92 84 -284 273 -541 368
-955 353 -538 -19 -1026 -277 -1362 -719 -292 -383 -443 -899 -404 -1378 36
-443 172 -756 442 -1022 176 -172 379 -286 603 -337 116 -27 178 -33 345 -32
560 1 1015 223 1340 654 41 53 77 97 80 97 3 0 4 -115 3 -256 l-4 -256 39 6
c21 3 148 20 283 36 135 17 262 33 283 36 l37 6 0 2399 0 2399 -32 -1 c-18 -1
-55 -5 -83 -10z m-1241 -2204 c306 -65 543 -273 656 -577 52 -141 65 -223 65
-428 0 -209 -10 -283 -62 -440 -175 -529 -660 -880 -1215 -880 -302 0 -521
108 -700 344 -140 186 -208 407 -208 680 0 401 142 755 403 1003 191 181 427
285 722 317 70 7 267 -4 339 -19z"/>
<path d="M11475 7536 c-133 -32 -255 -135 -317 -266 -49 -102 -62 -166 -55
-266 11 -191 130 -326 313 -357 54 -9 79 -8 146 5 116 24 181 60 263 142 106
107 155 221 156 367 1 109 -23 180 -88 249 -107 116 -265 163 -418 126z"/>
<path d="M17715 6833 c-191 -25 -562 -73 -568 -73 -4 0 -7 -748 -7 -1661 l0
-1661 58 7 c31 3 172 22 313 41 141 19 259 34 263 34 3 0 6 747 6 1660 0 1575
-1 1660 -17 1659 -10 -1 -31 -4 -48 -6z"/>
<path d="M11585 6029 c-110 -15 -238 -33 -284 -40 l-83 -11 5 -1312 c2 -721 1
-1466 -3 -1656 -4 -190 -7 -346 -6 -346 1 -1 146 17 324 39 l322 41 0 1658 0
1658 -37 -1 c-21 -1 -128 -14 -238 -30z"/>
<path d="M9331 5799 c-62 -4 -149 -15 -193 -24 -315 -65 -628 -262 -782 -494
-271 -407 -254 -902 40 -1163 153 -137 272 -183 716 -278 314 -67 424 -98 512
-142 73 -37 149 -107 175 -161 89 -187 -40 -448 -280 -566 -115 -57 -205 -81
-329 -88 -260 -14 -490 97 -604 291 -22 37 -42 68 -45 71 -6 3 -101 -32 -493
-181 l-67 -25 20 -52 c78 -202 220 -383 384 -492 296 -196 811 -229 1214 -78
547 204 865 626 838 1112 -19 335 -181 572 -479 697 -108 46 -253 83 -553 143
-293 58 -390 87 -471 139 -88 57 -129 117 -144 207 -27 166 83 365 250 454
134 72 267 99 390 80 143 -21 235 -86 314 -222 21 -37 44 -67 50 -67 6 0 132
41 279 92 l268 93 -5 30 c-11 55 -114 249 -170 319 -193 241 -446 334 -835
305z"/>
<path d="M5980 5369 c-405 -41 -789 -196 -1085 -439 -105 -86 -272 -262 -357
-376 -383 -515 -500 -1181 -303 -1731 127 -354 432 -672 788 -818 215 -88 415
-120 712 -112 367 9 642 70 924 203 218 103 392 222 563 383 93 88 208 219
208 237 0 8 -66 70 -302 283 l-49 43 -62 -59 c-286 -272 -648 -450 -1014 -498
-420 -55 -766 48 -1001 299 -133 143 -202 315 -219 547 -6 87 -6 88 18 93 13
3 305 42 649 86 1578 205 1922 249 2020 262 l105 13 3 75 c7 165 -40 470 -99
636 -69 196 -166 352 -303 489 -190 190 -449 321 -726 369 -119 21 -345 28
-470 15z m430 -598 c129 -44 221 -104 319 -207 68 -71 91 -105 136 -198 60
-121 76 -176 54 -176 -25 0 -936 -118 -1511 -196 -313 -43 -570 -75 -573 -72
-3 3 19 58 49 121 170 362 407 578 763 696 155 52 294 71 493 68 167 -3 179
-5 270 -36z"/>
<path d="M3750 5080 c-107 -15 -256 -35 -331 -45 l-137 -17 -418 -642 c-562
-861 -1173 -1788 -1191 -1806 -13 -13 -14 119 -12 1110 l3 1125 -25 -2 c-13
-1 -159 -20 -325 -43 -165 -22 -303 -40 -307 -40 -4 0 -7 -1046 -7 -2325 0
-1279 4 -2325 8 -2325 5 0 33 4 63 10 30 5 133 19 229 30 96 11 217 30 268 41
l92 22 2 506 c1 278 0 736 -1 1016 -3 449 -1 508 12 495 77 -79 262 -310 760
-949 282 -361 349 -444 432 -527 165 -167 343 -278 520 -325 114 -31 350 -38
483 -14 259 46 520 170 700 332 l54 48 -52 90 c-29 50 -79 140 -111 200 -86
163 -71 154 -159 91 -88 -63 -210 -127 -295 -152 -43 -13 -91 -18 -170 -18
-99 0 -117 3 -180 30 -80 34 -139 72 -240 155 -113 93 -124 105 -820 964 -143
176 -268 330 -278 342 -18 22 -14 28 611 970 1103 1664 1074 1619 1067 1653
-8 36 9 36 -245 0z"/>
</g>
</svg>
